<svg width="21" height="18" viewBox="0 0 21 18" fill="none" xmlns="http://www.w3.org/2000/svg">
<path d="M10 12H8C6.3596 11.9994 4.75023 12.4471 3.34588 13.2949C1.94152 14.1427 0.795601 15.3582 0.0320014 16.81C0.010538 16.5405 -0.000137283 16.2703 1.33261e-06 16C1.33261e-06 10.477 4.477 6 10 6V0.5L20.5 9L10 17.5V12ZM8 10H12V13.308L17.321 9L12 4.692V8H10C8.85025 7.99871 7.71379 8.24582 6.66839 8.72442C5.62299 9.20302 4.69332 9.90182 3.943 10.773C5.23432 10.2612 6.61096 9.99892 8 10Z" fill="#140F26"/>
</svg>
