<svg width="12" height="13" viewBox="0 0 12 13" fill="none" xmlns="http://www.w3.org/2000/svg">
<path d="M2 3.66667C2 2.19391 3.19391 1 4.66667 1H7.33333C8.80609 1 10 2.19391 10 3.66667V9.66667C10 11.1394 8.80609 12.3333 7.33333 12.3333H4.66667C3.19391 12.3333 2 11.1394 2 9.66667V3.66667Z" fill="white"/>
<path fill-rule="evenodd" clip-rule="evenodd" d="M7.33333 1.74508H4.66667C3.93029 1.74508 3.33333 2.37715 3.33333 3.15684V9.50978C3.33333 10.2895 3.93029 10.9215 4.66667 10.9215H7.33333C8.06971 10.9215 8.66667 10.2895 8.66667 9.50978V3.15684C8.66667 2.37715 8.06971 1.74508 7.33333 1.74508ZM4.66667 0.333313C3.19391 0.333313 2 1.59745 2 3.15684V9.50978C2 11.0692 3.19391 12.3333 4.66667 12.3333H7.33333C8.80609 12.3333 10 11.0692 10 9.50978V3.15684C10 1.59745 8.80609 0.333313 7.33333 0.333313H4.66667Z" fill="#140F26"/>
<path d="M0.666748 10.6666C0.666748 9.37798 1.71142 8.33331 3.00008 8.33331H9.00008C10.2887 8.33331 11.3334 9.37798 11.3334 10.6666C11.3334 11.9553 10.2887 13 9.00008 13H3.00008C1.71142 13 0.666748 11.9553 0.666748 10.6666Z" fill="white"/>
<path fill-rule="evenodd" clip-rule="evenodd" d="M9.00008 8.99996H3.00008C2.4478 8.99996 2.00008 9.44767 2.00008 9.99996C2.00008 10.5522 2.4478 11 3.00008 11H9.00008C9.55237 11 10.0001 10.5522 10.0001 9.99996C10.0001 9.44767 9.55237 8.99996 9.00008 8.99996ZM3.00008 7.66663C1.71142 7.66663 0.666748 8.71129 0.666748 9.99996C0.666748 11.2886 1.71142 12.3333 3.00008 12.3333H9.00008C10.2887 12.3333 11.3334 11.2886 11.3334 9.99996C11.3334 8.71129 10.2887 7.66663 9.00008 7.66663H3.00008Z" fill="#140F26"/>
</svg>
