<svg width="16" height="12" viewBox="0 0 16 12" fill="none" xmlns="http://www.w3.org/2000/svg">
<path d="M8.66675 9.292V10.6667H12.0001V12H4.00008V10.6667H7.33341V9.292C6.04455 9.12947 4.85929 8.50218 4.00008 7.52783C3.14087 6.55349 2.66677 5.29907 2.66675 4V0H13.3334V4C13.3334 5.29907 12.8593 6.55349 12.0001 7.52783C11.1409 8.50218 9.95561 9.12947 8.66675 9.292ZM4.00008 1.33333V4C4.00008 5.06087 4.42151 6.07828 5.17165 6.82843C5.9218 7.57857 6.93922 8 8.00008 8C9.06095 8 10.0784 7.57857 10.8285 6.82843C11.5787 6.07828 12.0001 5.06087 12.0001 4V1.33333H4.00008ZM0.666748 1.33333H2.00008V4H0.666748V1.33333ZM14.0001 1.33333H15.3334V4H14.0001V1.33333Z" fill="#140F26"/>
</svg>
