<svg width="14" height="14" viewBox="0 0 14 14" fill="none" xmlns="http://www.w3.org/2000/svg">
<path d="M6.99992 13.6667C3.31792 13.6667 0.333252 10.682 0.333252 7.00001C0.333252 3.31801 3.31792 0.333344 6.99992 0.333344C10.6819 0.333344 13.6666 3.31801 13.6666 7.00001C13.6666 10.682 10.6819 13.6667 6.99992 13.6667ZM3.67525 11.1707C4.61895 11.9251 5.79171 12.3353 6.99992 12.3333C8.31325 12.3333 9.51525 11.8587 10.4446 11.072C10.0104 10.6265 9.49129 10.2726 8.91794 10.0312C8.3446 9.78983 7.72867 9.66587 7.10659 9.66668C6.46164 9.66593 5.82359 9.79925 5.2329 10.0582C4.6422 10.3171 4.11177 10.6959 3.67525 11.1707ZM2.74392 10.2133C3.30422 9.61872 3.98037 9.14515 4.73068 8.82182C5.48099 8.49849 6.28957 8.33225 7.10659 8.33334C7.89435 8.33232 8.67456 8.48692 9.40242 8.78827C10.1303 9.08961 10.7914 9.53177 11.3479 10.0893C11.9186 9.28609 12.2557 8.34044 12.3216 7.35729C12.3876 6.37414 12.1799 5.39193 11.7216 4.51965C11.2633 3.64736 10.5723 2.91909 9.72523 2.41564C8.8782 1.91219 7.90825 1.65324 6.92299 1.66751C5.93773 1.68179 4.97569 1.96873 4.1436 2.49651C3.31151 3.0243 2.64189 3.77228 2.20905 4.65748C1.7762 5.54268 1.59705 6.53049 1.69146 7.51131C1.78588 8.49214 2.15017 9.42763 2.74392 10.214V10.2133ZM6.99992 7.66668C6.29268 7.66668 5.6144 7.38573 5.1143 6.88563C4.6142 6.38553 4.33325 5.70725 4.33325 5.00001C4.33325 4.29277 4.6142 3.61449 5.1143 3.11439C5.6144 2.6143 6.29268 2.33334 6.99992 2.33334C7.70716 2.33334 8.38544 2.6143 8.88554 3.11439C9.38564 3.61449 9.66659 4.29277 9.66659 5.00001C9.66659 5.70725 9.38564 6.38553 8.88554 6.88563C8.38544 7.38573 7.70716 7.66668 6.99992 7.66668ZM6.99992 6.33334C7.35354 6.33334 7.69268 6.19287 7.94273 5.94282C8.19278 5.69277 8.33325 5.35363 8.33325 5.00001C8.33325 4.64639 8.19278 4.30725 7.94273 4.0572C7.69268 3.80715 7.35354 3.66668 6.99992 3.66668C6.6463 3.66668 6.30716 3.80715 6.05711 4.0572C5.80706 4.30725 5.66659 4.64639 5.66659 5.00001C5.66659 5.35363 5.80706 5.69277 6.05711 5.94282C6.30716 6.19287 6.6463 6.33334 6.99992 6.33334Z" fill="#140F26"/>
</svg>
