<svg width="15" height="14" viewBox="0 0 15 14" fill="none" xmlns="http://www.w3.org/2000/svg">
<path d="M6.99992 13.6675C3.31792 13.6675 0.333252 10.6828 0.333252 7.00084C0.333252 3.31884 3.31792 0.334169 6.99992 0.334169C8.03502 0.333392 9.05605 0.574018 9.98187 1.03693C10.9077 1.49984 11.7128 2.17229 12.3333 3.00084H10.5266C9.75674 2.32201 8.80737 1.87974 7.79239 1.7271C6.77742 1.57446 5.73996 1.71794 4.80451 2.14031C3.86906 2.56268 3.07535 3.24601 2.51863 4.10829C1.96191 4.97058 1.66583 5.97519 1.66592 7.00157C1.666 8.02796 1.96225 9.03252 2.51911 9.89471C3.07598 10.7569 3.8698 11.4401 4.80532 11.8623C5.74084 12.2845 6.77833 12.4278 7.79327 12.275C8.80822 12.1222 9.75752 11.6798 10.5273 11.0008H12.3339C11.7134 11.8295 10.9082 12.502 9.98224 12.9649C9.05629 13.4278 8.03514 13.6684 6.99992 13.6675ZM11.6666 9.6675V7.6675H6.33325V6.33417H11.6666V4.33417L14.9999 7.00084L11.6666 9.6675Z" fill="#140F26"/>
</svg>
